<svg width="32" height="32" viewBox="0 0 24 24" fill="none" xmlns="http://www.w3.org/2000/svg">
  <g transform="translate(2, 2) scale(0.8)">
    <path
      d="M20 10C20 4.477 15.523 0 10 0S0 4.477 0 10s4.477 10 10 10c1.845 0 3.564-.503 5.035-1.378L19.343 20l1.414-1.414-4.308-4.308C18.665 12.831 20 11.564 20 10zM10 18c-4.411 0-8-3.589-8-8s3.589-8 8-8 8 3.589 8 8-3.589 8-8 8z"
      fill="#1A6B3C"
    />
    <path
      d="M10 5v4h4V5h-4zm1 1h2v2h-2V6zm-1 6v4h4v-4h-4zm1 1h2v2h-2v-2z"
      fill="#1A6B3C"
    />
  </g>
</svg>
